<svg width="142" height="58" viewBox="0 0 142 58" fill="none" xmlns="http://www.w3.org/2000/svg">
<rect width="142" height="58" fill="#1E1E1E"/>
<g clip-path="url(#clip0_0_1)">
<rect width="142" height="58" rx="10" fill="#119EFF"/>
<path d="M58.8523 33H55.7585V24.2727H58.8778C59.7557 24.2727 60.5114 24.4474 61.1449 24.7969C61.7784 25.1435 62.2656 25.642 62.6065 26.2926C62.9503 26.9432 63.1222 27.7216 63.1222 28.6278C63.1222 29.5369 62.9503 30.3182 62.6065 30.9716C62.2656 31.625 61.7756 32.1264 61.1364 32.4759C60.5 32.8253 59.7386 33 58.8523 33ZM57.6037 31.419H58.7756C59.321 31.419 59.7798 31.3224 60.152 31.1293C60.527 30.9332 60.8082 30.6307 60.9957 30.2216C61.1861 29.8097 61.2812 29.2784 61.2812 28.6278C61.2812 27.983 61.1861 27.456 60.9957 27.0469C60.8082 26.6378 60.5284 26.3366 60.1562 26.1435C59.7841 25.9503 59.3253 25.8537 58.7798 25.8537H57.6037V31.419ZM67.4123 33.1278C66.7504 33.1278 66.1779 32.9872 65.695 32.706C65.2148 32.4219 64.8441 32.027 64.5827 31.5213C64.3214 31.0128 64.1907 30.4233 64.1907 29.7528C64.1907 29.0767 64.3214 28.4858 64.5827 27.9801C64.8441 27.4716 65.2148 27.0767 65.695 26.7955C66.1779 26.5114 66.7504 26.3693 67.4123 26.3693C68.0742 26.3693 68.6452 26.5114 69.1254 26.7955C69.6083 27.0767 69.9805 27.4716 70.2418 27.9801C70.5032 28.4858 70.6339 29.0767 70.6339 29.7528C70.6339 30.4233 70.5032 31.0128 70.2418 31.5213C69.9805 32.027 69.6083 32.4219 69.1254 32.706C68.6452 32.9872 68.0742 33.1278 67.4123 33.1278ZM67.4208 31.7216C67.7219 31.7216 67.9734 31.6364 68.1751 31.4659C68.3768 31.2926 68.5288 31.0568 68.631 30.7585C68.7362 30.4602 68.7887 30.1207 68.7887 29.7401C68.7887 29.3594 68.7362 29.0199 68.631 28.7216C68.5288 28.4233 68.3768 28.1875 68.1751 28.0142C67.9734 27.8409 67.7219 27.7543 67.4208 27.7543C67.1168 27.7543 66.8612 27.8409 66.6538 28.0142C66.4492 28.1875 66.2944 28.4233 66.1893 28.7216C66.087 29.0199 66.0359 29.3594 66.0359 29.7401C66.0359 30.1207 66.087 30.4602 66.1893 30.7585C66.2944 31.0568 66.4492 31.2926 66.6538 31.4659C66.8612 31.6364 67.1168 31.7216 67.4208 31.7216ZM72.9414 33L71.1602 26.4545H72.9968L74.011 30.8523H74.0707L75.1275 26.4545H76.93L78.0039 30.8267H78.0593L79.0565 26.4545H80.8888L79.1119 33H77.19L76.065 28.8835H75.984L74.859 33H72.9414ZM83.6726 29.2159V33H81.8572V26.4545H83.5874V27.6094H83.6641C83.8089 27.2287 84.0518 26.9276 84.3928 26.706C84.7337 26.4815 85.147 26.3693 85.6328 26.3693C86.0874 26.3693 86.4837 26.4688 86.8217 26.6676C87.1598 26.8665 87.4226 27.1506 87.6101 27.5199C87.7976 27.8864 87.8913 28.3239 87.8913 28.8324V33H86.076V29.1562C86.0788 28.7557 85.9766 28.4432 85.7692 28.2188C85.5618 27.9915 85.2763 27.8778 84.9126 27.8778C84.6683 27.8778 84.4524 27.9304 84.2649 28.0355C84.0803 28.1406 83.9354 28.294 83.8303 28.4957C83.728 28.6946 83.6754 28.9347 83.6726 29.2159ZM91.1374 24.2727V33H89.3221V24.2727H91.1374ZM95.549 33.1278C94.8871 33.1278 94.3146 32.9872 93.8317 32.706C93.3516 32.4219 92.9808 32.027 92.7195 31.5213C92.4581 31.0128 92.3274 30.4233 92.3274 29.7528C92.3274 29.0767 92.4581 28.4858 92.7195 27.9801C92.9808 27.4716 93.3516 27.0767 93.8317 26.7955C94.3146 26.5114 94.8871 26.3693 95.549 26.3693C96.2109 26.3693 96.782 26.5114 97.2621 26.7955C97.745 27.0767 98.1172 27.4716 98.3786 27.9801C98.6399 28.4858 98.7706 29.0767 98.7706 29.7528C98.7706 30.4233 98.6399 31.0128 98.3786 31.5213C98.1172 32.027 97.745 32.4219 97.2621 32.706C96.782 32.9872 96.2109 33.1278 95.549 33.1278ZM95.5575 31.7216C95.8587 31.7216 96.1101 31.6364 96.3118 31.4659C96.5135 31.2926 96.6655 31.0568 96.7678 30.7585C96.8729 30.4602 96.9254 30.1207 96.9254 29.7401C96.9254 29.3594 96.8729 29.0199 96.7678 28.7216C96.6655 28.4233 96.5135 28.1875 96.3118 28.0142C96.1101 27.8409 95.8587 27.7543 95.5575 27.7543C95.2536 27.7543 94.9979 27.8409 94.7905 28.0142C94.5859 28.1875 94.4311 28.4233 94.326 28.7216C94.2237 29.0199 94.1726 29.3594 94.1726 29.7401C94.1726 30.1207 94.2237 30.4602 94.326 30.7585C94.4311 31.0568 94.5859 31.2926 94.7905 31.4659C94.9979 31.6364 95.2536 31.7216 95.5575 31.7216ZM101.817 33.1236C101.4 33.1236 101.028 33.0511 100.701 32.9062C100.374 32.7585 100.116 32.5412 99.9254 32.2543C99.7379 31.9645 99.6442 31.6037 99.6442 31.1719C99.6442 30.8082 99.7109 30.5028 99.8445 30.2557C99.978 30.0085 100.16 29.8097 100.39 29.6591C100.62 29.5085 100.881 29.3949 101.174 29.3182C101.469 29.2415 101.779 29.1875 102.103 29.1562C102.484 29.1165 102.79 29.0795 103.023 29.0455C103.256 29.0085 103.425 28.9545 103.531 28.8835C103.636 28.8125 103.688 28.7074 103.688 28.5682V28.5426C103.688 28.2727 103.603 28.0639 103.433 27.9162C103.265 27.7685 103.026 27.6946 102.717 27.6946C102.39 27.6946 102.13 27.767 101.937 27.9119C101.744 28.054 101.616 28.233 101.553 28.4489L99.8743 28.3125C99.9595 27.9148 100.127 27.571 100.377 27.2812C100.627 26.9886 100.95 26.7642 101.344 26.608C101.742 26.4489 102.202 26.3693 102.725 26.3693C103.089 26.3693 103.437 26.4119 103.769 26.4972C104.104 26.5824 104.401 26.7145 104.66 26.8935C104.921 27.0724 105.127 27.3026 105.278 27.5838C105.428 27.8622 105.504 28.196 105.504 28.5852V33H103.782V32.0923H103.731C103.626 32.2969 103.485 32.4773 103.309 32.6335C103.133 32.7869 102.921 32.9077 102.674 32.9957C102.427 33.081 102.141 33.1236 101.817 33.1236ZM102.337 31.8707C102.604 31.8707 102.84 31.8182 103.045 31.7131C103.249 31.6051 103.41 31.4602 103.526 31.2784C103.643 31.0966 103.701 30.8906 103.701 30.6605V29.9659C103.644 30.0028 103.566 30.0369 103.467 30.0682C103.37 30.0966 103.261 30.1236 103.138 30.1491C103.016 30.1719 102.894 30.1932 102.772 30.2131C102.65 30.2301 102.539 30.2457 102.44 30.2599C102.227 30.2912 102.04 30.3409 101.881 30.4091C101.722 30.4773 101.599 30.5696 101.511 30.6861C101.423 30.7997 101.379 30.9418 101.379 31.1122C101.379 31.3594 101.468 31.5483 101.647 31.679C101.829 31.8068 102.059 31.8707 102.337 31.8707ZM109.324 33.1065C108.827 33.1065 108.376 32.9787 107.973 32.723C107.572 32.4645 107.254 32.0852 107.018 31.5852C106.786 31.0824 106.669 30.4659 106.669 29.7358C106.669 28.9858 106.79 28.3622 107.031 27.8651C107.273 27.3651 107.594 26.9915 107.994 26.7443C108.398 26.4943 108.839 26.3693 109.32 26.3693C109.686 26.3693 109.991 26.4318 110.236 26.5568C110.483 26.679 110.682 26.8324 110.832 27.017C110.986 27.1989 111.102 27.3778 111.182 27.554H111.237V24.2727H113.048V33H111.259V31.9517H111.182C111.097 32.1335 110.976 32.3139 110.82 32.4929C110.666 32.669 110.466 32.8153 110.219 32.9318C109.974 33.0483 109.676 33.1065 109.324 33.1065ZM109.899 31.6619C110.192 31.6619 110.439 31.5824 110.641 31.4233C110.845 31.2614 111.001 31.0355 111.109 30.7457C111.22 30.456 111.276 30.1165 111.276 29.7273C111.276 29.3381 111.222 29 111.114 28.7131C111.006 28.4261 110.849 28.2045 110.645 28.0483C110.44 27.892 110.192 27.8139 109.899 27.8139C109.601 27.8139 109.349 27.8949 109.145 28.0568C108.94 28.2187 108.786 28.4432 108.68 28.7301C108.575 29.017 108.523 29.3494 108.523 29.7273C108.523 30.108 108.575 30.4446 108.68 30.7372C108.788 31.027 108.943 31.2543 109.145 31.419C109.349 31.581 109.601 31.6619 109.899 31.6619Z" fill="white"/>
<g clip-path="url(#clip1_0_1)">
<path d="M35.1719 20H37.8281C38.2697 20 38.625 20.3553 38.625 20.7969V26.375H41.5369C42.1279 26.375 42.4234 27.0889 42.0051 27.5072L36.9549 32.5607C36.7059 32.8098 36.2975 32.8098 36.0484 32.5607L30.9916 27.5072C30.5732 27.0889 30.8687 26.375 31.4598 26.375H34.375V20.7969C34.375 20.3553 34.7303 20 35.1719 20ZM45 32.4844V36.2031C45 36.6447 44.6447 37 44.2031 37H28.7969C28.3553 37 28 36.6447 28 36.2031V32.4844C28 32.0428 28.3553 31.6875 28.7969 31.6875H33.6678L35.2947 33.3145C35.9621 33.9818 37.0379 33.9818 37.7053 33.3145L39.3322 31.6875H44.2031C44.6447 31.6875 45 32.0428 45 32.4844ZM40.8828 35.4062C40.8828 35.041 40.584 34.7422 40.2188 34.7422C39.8535 34.7422 39.5547 35.041 39.5547 35.4062C39.5547 35.7715 39.8535 36.0703 40.2188 36.0703C40.584 36.0703 40.8828 35.7715 40.8828 35.4062ZM43.0078 35.4062C43.0078 35.041 42.709 34.7422 42.3438 34.7422C41.9785 34.7422 41.6797 35.041 41.6797 35.4062C41.6797 35.7715 41.9785 36.0703 42.3438 36.0703C42.709 36.0703 43.0078 35.7715 43.0078 35.4062Z" fill="#F7F7F7"/>
</g>
</g>
<defs>
<clipPath id="clip0_0_1">
<rect width="142" height="58" fill="white"/>
</clipPath>
<clipPath id="clip1_0_1">
<rect width="17" height="17" fill="white" transform="translate(28 20)"/>
</clipPath>
</defs>
</svg>
